<svg id="Layer_1" data-name="Layer 1" xmlns="http://www.w3.org/2000/svg" viewBox="0 0 289 120">
  <defs>
    <style>
      .cls-1 {
        fill: #fe5300;
      }
    </style>
  </defs>
  <title>logo</title>
  <path class="cls-1" d="M43.77,0H289.5V76c-14.34,14.75-28.85,29.34-43.3,44H.5V43.93C14.86,29.22,29.34,14.64,43.77,0ZM41,42.78c-.16,12.95.06,25.91-.11,38.86,3.49,2.12,7,4.29,10.61,6.16,6,.06,11.95,0,17.93,0,0-3.47.07-6.93,0-10.39-5.61,0-11.22,0-16.83,0q0-15.33,0-30.67c5.7,0,11.4,0,17.1,0,.45-3.3.07-6.72.19-10.06-6.13,0-12.27,0-18.4,0C47.82,38.51,44.45,40.75,41,42.78Zm32.6-6q0,5,0,10H90.89c0,2,0,4.11,0,6.16,3.9.12,7.8,0,11.71.05,0-3.42,0-6.83,0-10.25-3.37-1.93-6.68-4-10-5.92C86.22,36.65,79.9,36.77,73.59,36.76Zm38.89,0c0,3.34,0,6.68,0,10,7.73,0,15.46,0,23.19,0,0,13.67,0,27.35,0,41h12.08c.07-13.55-.07-27.1.07-40.64l.28-.48c8.45.17,16.92,0,25.38.08.08-3.35,0-6.69,0-10Q143,36.74,112.48,36.75Zm72.59,0q0,25.53,0,51.07h11.29c0-12.24,0-24.47,0-36.71,5.77,5.28,11.33,10.79,17.11,16,0-4.42,0-8.85,0-13.27-6-5.8-12.09-11.41-18.11-17.13C192,36.72,188.51,36.75,185.07,36.75Zm50.76.34c-5.92,5.61-11.9,11.15-17.85,16.72-.21,4.49,0,9-.1,13.47,6-5.29,11.67-10.92,17.47-16.42-.07,12.32,0,24.64,0,37,3.67,0,7.34,0,11,0q0-25.54,0-51.07C242.86,37,239.19,36.27,235.83,37.09Zm-145,34c0,2.11,0,4.22,0,6.33-5.55.11-11.12-.19-16.65.14.07,3.41,0,6.81,0,10.22,6,0,12,.09,18,0,3.44-2,6.92-4,10.31-6.05,0-3.55,0-7.1,0-10.65C98.67,71.08,94.77,71,90.87,71.12Z" transform="translate(-0.5)"/>
</svg>
